#!OML:ASF X:\für Bonn\!DataBase\2005_08_12_Daniel\c3d\Daniel.ASF
:FULLY-SPECIFIED
:DEGREES
130
root -2.78492 12.7407 -2.69124 320.215 -81.2727 -338.82
lowerback 40.9952 -3.89787 0.887881
upperback 6.03329 -5.81111 -2.74522
thorax -13.3532 -2.98292 -0.720883
lowerneck 3.69991 5.6315 0.763
upperneck -1.01786 7.42761 -5.0013
head -0.708063 3.76453 -1.79804
rclavicle 4.07509e-014 3.18055e-015
rhumerus 62.304 1.36576 -96.605
rradius 12.7341
rwrist 63.722
rhand -20.9156 12.7872
rfingers 7.12502
rthumb 5.4558 -17.1226
lclavicle 4.07509e-014 3.18055e-015
lhumerus 66.4489 -6.00106 75.8737
lradius 12.2316
lwrist -47.9144
lhand -16.0841 4.91849
lfingers 7.12502
lthumb 10.119 34.6552
rfemur -33.2716 -28.6635 -6.1459
rtibia 104.331
rfoot -18.4206 21.5246
rtoes -7.62201
lfemur -41.2494 10.6193 -12.7076
ltibia 99.1339
lfoot -21.0213 -30.2541
ltoes 8.86824
131
root -2.80201 12.9229 -2.69135 320.357 -81.2461 -338.688
lowerback 40.3132 -3.87339 0.895106
upperback 5.97584 -5.76307 -2.77576
thorax -13.1974 -2.95956 -0.809215
lowerneck 3.96223 6.07261 1.19422
upperneck -0.9879 8.0311 -5.30579
head -0.695505 4.0708 -1.98337
rclavicle 1.19271e-014 3.18055e-014
rhumerus 62.0215 0.949182 -97.4003
rradius 12.6953
rwrist 64.4476
rhand -20.7946 12.7878
rfingers 7.12502
rthumb 5.57262 -17.119
lclavicle 1.19271e-014 3.18055e-014
lhumerus 66.2749 -5.91955 76.5782
lradius 12.1031
lwrist -48.4733
lhand -15.6541 4.96441
lfingers 7.12502
lthumb 10.5338 34.6804
rfemur -32.3799 -27.7919 -5.3816
rtibia 102.362
rfoot -18.5576 20.7593
rtoes -7.66733
lfemur -40.0714 10.1857 -12.9767
ltibia 97.1522
lfoot -21.332 -29.8888
ltoes 8.65664
132
root -2.81992 13.1077 -2.69204 320.455 -81.2211 -338.52
lowerback 39.6602 -3.84776 0.909292
upperback 5.88744 -5.71105 -2.8155
thorax -13.0844 -2.93316 -0.910383
lowerneck 4.30011 6.4991 1.57412
upperneck -0.954636 8.6154 -5.5471
head -0.695587 4.36806 -2.14379
rclavicle 7.70291e-015 -2.44505e-014
rhumerus 61.698 0.406058 -98.4412
rradius 12.662
rwrist 65.4653
rhand -20.6853 12.8202
rfingers 7.12502
rthumb 5.67819 -17.0837
lclavicle 7.70291e-015 -2.44505e-014
lhumerus 66.0351 -5.84209 77.3021
lradius 12.0089
lwrist -49.084
lhand -15.1572 4.94945
lfingers 7.12502
lthumb 11.0131 34.6405
rfemur -31.4162 -26.9432 -4.66893
rtibia 100.335
rfoot -18.6441 20.039
rtoes -7.53316
lfemur -38.8395 9.75317 -13.2521
ltibia 95.1166
lfoot -21.6855 -29.4641
ltoes 8.34057
133
root -2.83763 13.2911 -2.69313 320.649 -81.2022 -338.449
lowerback 38.9899 -3.82029 0.916502
upperback 5.82475 -5.65902 -2.84014
thorax -12.9285 -2.90797 -0.993417
lowerneck 4.43536 6.90883 1.80341
upperneck -0.839987 9.17738 -5.63565
head -0.645971 4.64947 -2.21826
rclavicle 4.96962e-016 -1.78906e-015
rhumerus 61.4583 -0.0670634 -99.3117
rradius 12.6339
rwrist 66.3674
rhand -20.5041 12.8283
rfingers 7.12502
rthumb 5.85312 -17.0709
lclavicle 4.96962e-016 -1.78906e-015
lhumerus 65.8337 -5.71538 78.0917
lradius 11.9247
lwrist -49.7974
lhand -14.6861 5.00037
lfingers 7.12502
lthumb 11.4675 34.6667
rfemur -30.4385 -26.1528 -3.96092
rtibia 98.279
rfoot -18.826 19.2877
rtoes -7.62544
lfemur -37.6022 9.32277 -13.5037
ltibia 93.0602
lfoot -22.0117 -29.0077
ltoes 8.10404
134
root -2.85559 13.4745 -2.69447 320.673 -81.1636 -338.207
lowerback 38.3362 -3.78241 0.896411
upperback 5.73851 -5.60478 -2.86861
thorax -12.7994 -2.87971 -1.06573
lowerneck 4.44438 7.31752 1.9918
upperneck -0.589241 9.74187 -5.65371
head -0.535137 4.92811 -2.25199
rclavicle -4.72114e-014 -1.21259e-014
rhumerus 61.2011 -0.56866 -100.182
rradius 12.6343
rwrist 67.3726
rhand -20.3123 12.8162
rfingers 7.12502
rthumb 6.03828 -17.0777
lclavicle -4.72114e-014 -1.21259e-014
lhumerus 65.5569 -5.59901 78.8865
lradius 11.9045
lwrist -50.4723
lhand -14.2783 4.97909
lfingers 7.12502
lthumb 11.8608 34.6232
rfemur -29.4374 -25.3929 -3.32507
rtibia 96.1918
rfoot -18.9692 18.5474
rtoes -7.62661
lfemur -36.364 8.89852 -13.7959
ltibia 90.9712
lfoot -22.3865 -28.4973
ltoes 7.74854
135
root -2.87429 13.6574 -2.69629 320.773 -81.1465 -338.024
lowerback 37.6583 -3.75193 0.881505
upperback 5.65287 -5.55734 -2.89639
thorax -12.657 -2.85495 -1.13806
lowerneck 4.35013 7.74399 2.11791
upperneck -0.30687 10.3284 -5.59878
head -0.401676 5.2157 -2.24427
rclavicle -5.28767e-014 1.25234e-014
rhumerus 61.0022 -1.12479 -101.254
rradius 12.626
rwrist 68.6306
rhand -20.0465 12.8261
rfingers 7.12502
rthumb 6.29496 -17.0604
lclavicle -5.28767e-014 1.25234e-014
lhumerus 65.3441 -5.48679 79.5163
lradius 11.8048
lwrist -51.09
lhand -13.9283 5.01054
lfingers 7.12502
lthumb 12.1982 34.6349
rfemur -28.4421 -24.644 -2.6615
rtibia 94.0704
rfoot -19.1559 17.793
rtoes -7.76213
lfemur -35.1456 8.5061 -14.065
ltibia 88.8509
lfoot -22.6925 -27.9457
ltoes 7.34975
136
root -2.89327 13.8369 -2.69827 320.918 -81.1138 -337.904
lowerback 37.0152 -3.72398 0.885552
upperback 5.55305 -5.50645 -2.9311
thorax -12.5411 -2.82872 -1.22703
lowerneck 4.1688 8.16312 2.29419
upperneck 0.0654171 10.9094 -5.54903
head -0.222232 5.49866 -2.23716
rclavicle 3.93594e-014 -3.57812e-015
rhumerus 60.8559 -1.72544 -102.306
rradius 12.5989
rwrist 69.9627
rhand -19.7214 12.8677
rfingers 7.12502
rthumb 6.60875 -17.0092
lclavicle 3.93594e-014 -3.57812e-015
lhumerus 65.1067 -5.3979 80.1806
lradius 11.7023
lwrist -51.8274
lhand -13.7463 5.02946
lfingers 7.12502
lthumb 12.3737 34.6433
rfemur -27.3937 -23.9506 -2.05611
rtibia 91.9275
rfoot -19.3838 17.0646
rtoes -7.9073
lfemur -33.932 8.1057 -14.3331
ltibia 86.7282
lfoot -22.9709 -27.3697
ltoes 6.97013
137
root -2.91231 14.0153 -2.70122 320.83 -81.0745 -337.526
lowerback 36.3564 -3.67624 0.811866
upperback 5.44586 -5.45812 -2.95075
thorax -12.4156 -2.8007 -1.25857
lowerneck 4.00394 8.58581 2.46493
upperneck 0.433959 11.4931 -5.52481
head -0.0448589 5.78367 -2.23599
rclavicle -1.31695e-014 -2.00773e-014
rhumerus 60.9061 -2.28777 -103.393
rradius 12.3515
rwrist 71.3462
rhand -19.4437 12.8598
rfingers 7.12502
rthumb 6.87684 -17.0085
lclavicle -1.31695e-014 -2.00773e-014
lhumerus 64.8764 -5.2511 80.8691
lradius 11.5846
lwrist -52.613
lhand -13.6228 5.07089
lfingers 7.12502
lthumb 12.4928 34.6775
rfemur -26.3739 -23.2617 -1.49454
rtibia 89.7689
rfoot -19.6286 16.3216
rtoes -8.00547
lfemur -32.7423 7.72705 -14.6356
ltibia 84.5843
lfoot -23.2039 -26.7698
ltoes 6.60139
138
root -2.93138 14.1883 -2.70373 320.938 -81.0488 -337.361
lowerback 35.6436 -3.64436 0.79864
upperback 5.41044 -5.40777 -2.98474
thorax -12.308 -2.77397 -1.32089
lowerneck 3.88959 9.00519 2.61825
upperneck 0.791049 12.0701 -5.46224
head 0.117425 6.06617 -2.22087
rclavicle -4.73604e-014 -5.36719e-015
rhumerus 61.1342 -3.00913 -104.849
rradius 11.9451
rwrist 73.1812
rhand -19.1544 12.8678
rfingers 7.12502
rthumb 7.15609 -16.9912
lclavicle -4.73604e-014 -5.36719e-015
lhumerus 64.6615 -5.13352 81.4852
lradius 11.449
lwrist -53.3861
lhand -13.5935 5.10359
lfingers 7.12502
lthumb 12.5211 34.7084
rfemur -25.3214 -22.6096 -0.929589
rtibia 87.5992
rfoot -19.9503 15.5946
rtoes -8.31217
lfemur -31.5492 7.34372 -14.8952
ltibia 82.4455
lfoot -23.4312 -26.1358
ltoes 6.16758
139
root -2.95086 14.3593 -2.70687 320.872 -81.0142 -337.002
lowerback 34.986 -3.59544 0.756119
upperback 5.30634 -5.34826 -3.02403
thorax -12.1764 -2.74266 -1.39355
lowerneck 3.85132 9.39088 2.82796
upperneck 1.07836 12.6022 -5.43377
head 0.249626 6.32871 -2.23077
rclavicle 2.39039e-014 -1.15295e-014
rhumerus 61.5281 -3.83312 -106.519
rradius 11.4283
rwrist 75.2658
rhand -18.9392 12.8676
rfingers 7.12502
rthumb 7.36379 -16.9843
lclavicle 2.39039e-014 -1.15295e-014
lhumerus 64.4953 -5.05577 82.0439
lradius 11.3011
lwrist -54.1143
lhand -13.6026 5.08634
lfingers 7.12502
lthumb 12.5123 34.6917
rfemur -24.29 -21.963 -0.408358
rtibia 85.4104
rfoot -20.2888 14.8609
rtoes -8.6947
lfemur -30.39 6.98839 -15.1879
ltibia 80.2953
lfoot -23.5857 -25.4925
ltoes 5.7526
140
root -2.97027 14.5256 -2.71096 320.875 -80.9885 -336.715
lowerback 34.3459 -3.55865 0.723284
upperback 5.18101 -5.30074 -3.07079
thorax -12.0733 -2.71648 -1.47253
lowerneck 3.91599 9.76635 3.05412
upperneck 1.33597 13.1203 -5.42325
head 0.358304 6.58621 -2.25462
rclavicle -5.76476e-015 -2.98177e-015
rhumerus 61.9485 -4.68996 -108.354
rradius 10.8752
rwrist 77.4382
rhand -18.7256 12.8303
rfingers 7.12502
rthumb 7.57002 -17.0142
lclavicle -5.76476e-015 -2.98177e-015
lhumerus 64.2645 -4.95697 82.5685
lradius 11.1895
lwrist -54.8679
lhand -13.6799 5.10378
lfingers 7.12502
lthumb 12.4377 34.7137
rfemur -23.235 -21.3242 0.116279
rtibia 83.2084
rfoot -20.7057 14.1371
rtoes -9.03449
lfemur -29.24 6.63313 -15.445
ltibia 78.1487
lfoot -23.6556 -24.8573
ltoes 5.44239
141
root -2.99041 14.6888 -2.71466 320.823 -80.9428 -336.363
lowerback 33.6845 -3.51335 0.655773
upperback 5.05791 -5.25123 -3.09673
thorax -11.9495 -2.68824 -1.51272
lowerneck 3.94375 10.1348 3.21513
upperneck 1.60781 13.6258 -5.38675
head 0.471932 6.83657 -2.25596
rclavicle 1.23743e-014 -2.34566e-014
rhumerus 62.4013 -5.59761 -110.327
rradius 10.3386
rwrist 79.765
rhand -18.536 12.7962
rfingers 7.12502
rthumb 7.75304 -17.0417
lclavicle 1.23743e-014 -2.34566e-014
lhumerus 64.0214 -4.83974 83.1614
lradius 11.109
lwrist -55.5885
lhand -13.7645 5.15878
lfingers 7.12502
lthumb 12.3562 34.7736
rfemur -22.1588 -20.712 0.58832
rtibia 80.9897
rfoot -21.1471 13.4149
rtoes -9.40953
lfemur -28.1043 6.26387 -15.7261
ltibia 75.9934
lfoot -23.6628 -24.2169
ltoes 5.16953
